<?xml version="1.0" encoding="iso-8859-1"?>
<!-- Generator: Adobe Illustrator 17.0.0, SVG Export Plug-In . SVG Version: 6.00 Build 0)  -->
<!DOCTYPE svg PUBLIC "-//W3C//DTD SVG 1.1//EN" "http://www.w3.org/Graphics/SVG/1.1/DTD/svg11.dtd">
<svg version="1.1" id="Layer_1" xmlns="http://www.w3.org/2000/svg" xmlns:xlink="http://www.w3.org/1999/xlink" x="0px" y="0px"
	 width="20px" height="20px" viewBox="0 0 20 20" style="enable-background:new 0 0 20 20;" xml:space="preserve">
<path style="opacity:0.2;fill:#404040;" d="M14,4H6C4.9,4,4,4.9,4,6v8c0,1.101,0.9,2,2,2h8c1.1,0,2-0.899,2-2V6C16,4.9,15.1,4,14,4z
	 M7.269,13.741c-0.562,0-1.019-0.453-1.019-1.015c0-0.559,0.457-1.017,1.019-1.017c0.565,0,1.02,0.459,1.02,1.017
	C8.289,13.288,7.833,13.741,7.269,13.741z M9.83,13.75c0-0.959-0.373-1.861-1.048-2.536c-0.677-0.677-1.575-1.05-2.53-1.05V8.696
	c2.785,0,5.052,2.267,5.052,5.054H9.83L9.83,13.75z M12.433,13.75c0-3.411-2.774-6.187-6.18-6.187V6.095
	c4.219,0,7.652,3.435,7.652,7.655H12.433L12.433,13.75z"/>
</svg>
